{"title":"IMPACT.WRESTLING.2015.07.22.HDTV.XviD-FICEK9","uid":12183695,"size":782580825,"categoryP":"video","categoryS":"tv_shows","magnet":"?xt=urn:btih:5e73a6f93a3e092b8f59485366a6e7b812478c3b&amp;dn=IMPACT.WRESTLING.2015.07.22.HDTV.XviD-FICEK9&amp;tr=udp%3A%2F%2Ftracker.openbittorrent.com%3A80&amp;tr=udp%3A%2F%2Fopen.demonii.com%3A1337&amp;tr=udp%3A%2F%2Ftracker.coppersurfer.tk%3A6969&amp;tr=udp%3A%2F%2Fexodus.desync.com%3A6969","seeders":0,"leechers":0,"uploader":"FICEK9","files":2,"time":1438509300,"description":"\n   General\n      Complete name : IMPACT.WRESTLING.2015.07.22.HDTV.XviD-FICEK9.avi\n      Format : AVI\n      Format/Info : Audio Video Interleave\n      File size : 746 MiB\n      Duration : 1h 27mn\n      Overall bit rate mode : Variable\n      Overall bit rate : 1 194 Kbps\n      Writing application : MEncoder SVN-r33883(20110719-gcc4.5.2)\n      Writing library : MPlayer\n   Video #0\n      ID : 0\n      Format : MPEG-4 Visual\n      Format profile : Advanced Simple@L5\n      Format settings, BVOP : 2\n      Format settings, QPel : No\n      Format settings, GMC : No warppoints\n      Format settings, Matrix : Default (H.263)\n      Codec ID : XVID\n      Codec ID/Hint : XviD\n      Duration : 1h 27mn\n      Bit rate : 1 058 Kbps\n      Width : 1 280 pixels\n      Height : 720 pixels\n      Display aspect ratio : 16:9\n      Frame rate : 29.970 fps\n      Color space : YUV\n      Chroma subsampling : 4:2:0\n      Bit depth : 8 bits\n      Scan type : Progressive\n      Compression mode : Lossy\n      Bits/(Pixel*Frame) : 0.038\n      Stream size : 661 MiB (89%)\n      Writing library : XviD 1.2.1 (UTC 2008-12-04)\n   Audio #1\n      ID : 1\n      Format : MPEG Audio\n      Format version : Version 1\n      Format profile : Layer 3\n      Mode : Joint stereo\n      Codec ID : 55\n      Codec ID/Hint : MP3\n      Duration : 1h 27mn\n      Bit rate mode : Variable\n      Bit rate : 123 Kbps\n      Channel(s) : 2 channels\n      Sampling rate : 48.0 KHz\n      Compression mode : Lossy\n      Stream size : 76.7 MiB (10%)\n      Alignment : Aligned on interleaves\n      Interleave, duration : 24 ms (0.72 video frame)\n      Interleave, preload duration : 557 ms","torrent":{"xt":"urn:btih:5e73a6f93a3e092b8f59485366a6e7b812478c3b","amp;dn":"IMPACT.WRESTLING.2015.07.22.HDTV.XviD-FICEK9","amp;tr":["udp%3A%2F%2Ftracker.openbittorrent.com%3A80","udp%3A%2F%2Fopen.demonii.com%3A1337","udp%3A%2F%2Ftracker.coppersurfer.tk%3A6969","udp%3A%2F%2Fexodus.desync.com%3A6969"],"infoHash":"5e73a6f93a3e092b8f59485366a6e7b812478c3b","infoHashBuffer":{"type":"Buffer","data":[94,115,166,249,58,62,9,43,143,89,72,83,102,166,231,184,18,71,140,59]},"announce":[],"urlList":[]}}